<svg width="10" height="16" viewBox="0 0 10 16" fill="none" xmlns="http://www.w3.org/2000/svg">
<path d="M0.254775 8.62432L7.37498 15.7444C7.53966 15.9092 7.75949 16 7.9939 16C8.2283 16 8.44814 15.9092 8.61282 15.7444L9.13717 15.2202C9.47837 14.8786 9.47837 14.3234 9.13717 13.9823L3.15817 8.00332L9.14381 2.01768C9.30849 1.85286 9.39941 1.63316 9.39941 1.39888C9.39941 1.16435 9.30849 0.944643 9.14381 0.779701L8.61945 0.255608C8.45464 0.0907965 8.23494 9.53674e-07 8.00053 9.53674e-07C7.76613 9.53674e-07 7.54629 0.0907965 7.38161 0.255608L0.254775 7.38218C0.0897036 7.54752 -0.000962257 7.76826 -0.000442505 8.00293C-0.000962257 8.2385 0.0897036 8.45912 0.254775 8.62432Z" fill="#D1CECE"/>
</svg>
